<?xml version="1.0" encoding="utf-8"?>
<!-- Generator: Adobe Illustrator 24.2.3, SVG Export Plug-In . SVG Version: 6.00 Build 0)  -->
<svg version="1.1" xmlns="http://www.w3.org/2000/svg" xmlns:xlink="http://www.w3.org/1999/xlink" x="0px" y="0px"
	 viewBox="0 0 576 576" style="enable-background:new 0 0 576 576;" xml:space="preserve">
<style type="text/css">
	.st0{display:none;}
	.st1{display:inline;fill:#FFED00;}
	.st2{display:inline;fill:none;}
	.st3{display:inline;fill:#1D1D1B;}
	.st4{display:inline;fill:none;stroke:#1D1D1B;stroke-miterlimit:10;}
	.st5{display:inline;fill:#1D1D1B;stroke:#1D1D1B;stroke-miterlimit:10;}
	.st6{display:inline;fill:none;stroke:#1D1D1B;stroke-width:7;stroke-miterlimit:10;}
	.st7{display:inline;fill:none;stroke:#1D1D1B;stroke-width:6;stroke-miterlimit:10;}
	.st8{fill:none;stroke:#1D1D1B;stroke-width:14;stroke-linecap:round;stroke-miterlimit:10;}
	.st9{fill:#1D1D1B;}
	.st10{fill:none;stroke:#1D1D1B;stroke-width:14;stroke-miterlimit:10;}
	.st11{fill:none;stroke:#1D1D1B;stroke-width:14;stroke-linecap:round;stroke-linejoin:round;stroke-miterlimit:10;}
</style>
<g id="Шар_1">
</g>
<g id="Шар_4" class="st0">
	<rect x="85.3" y="78.9" class="st1" width="404.1" height="404.1"/>
</g>
<g id="Шар_8">
</g>
<g id="Шар_7" class="st0">
	<path class="st2" d="M158.5,239.7c0,91,74,165,165,165c70.2,0,130.4-44.1,154.1-106.1c0.5-5.8,0.8-11.7,0.8-17.6
		c0-105.4-85.7-191.1-191.1-191.1c-14.4,0-28.5,1.6-42,4.7C193.6,122.3,158.5,177,158.5,239.7z"/>
	<path class="st2" d="M323.4,414.6c-96.5,0-175-78.5-175-175c0-53.8,24.4-101.9,62.7-134c-67.6,29.5-114.9,96.9-114.9,175.2
		c0,105.4,85.7,191.1,191.1,191.1c87.1,0,160.7-58.5,183.7-138.3C439.8,382.3,385.3,414.6,323.4,414.6z"/>
	<path class="st2" d="M487.2,259.4c0.8-6.5,1.2-13,1.2-19.7c0-91-74-165-165-165c-14.1,0-27.8,1.8-40.9,5.1c1.6,0,3.1-0.1,4.7-0.1
		C390.9,79.8,476.5,158.6,487.2,259.4z"/>
	<path class="st3" d="M470.9,333.7c-23,79.8-96.6,138.3-183.7,138.3c-105.4,0-191.1-85.7-191.1-191.1c0-78.3,47.4-145.8,114.9-175.2
		c9.4-7.9,19.7-14.8,30.7-20.7c-89,20.7-155.6,100.7-155.6,195.9c0,110.9,90.2,201.1,201.1,201.1c104.2,0,190.1-79.6,200.1-181.2
		C483,312.4,477.5,323.4,470.9,333.7z"/>
	<path class="st3" d="M323.4,404.6c-91,0-165-74-165-165c0-62.7,35.2-117.3,86.8-145.2c-11.8,2.7-23.2,6.4-34.1,11.2
		c-38.3,32.1-62.7,80.3-62.7,134c0,96.5,78.5,175,175,175c61.9,0,116.4-32.3,147.5-80.9c3.3-11.3,5.5-23.1,6.6-35.2
		C453.8,360.5,393.7,404.6,323.4,404.6z"/>
	<path class="st3" d="M245.3,94.4c11.7-6.3,24.2-11.2,37.3-14.6c-14,0.3-27.6,2.1-40.8,5.1c-11,5.8-21.2,12.7-30.7,20.7
		C222,100.9,233.4,97.1,245.3,94.4z"/>
	<path class="st3" d="M487.2,259.4c-1.6,13.6-4.9,26.7-9.7,39.1c-1.1,12.1-3.3,23.8-6.6,35.2c6.6-10.3,12.1-21.3,16.4-32.9
		c0.6-6.6,1-13.2,1-19.9C488.4,273.6,488,266.4,487.2,259.4z"/>
</g>
<g id="Шар_7_копія" class="st0">
	<path class="st4" d="M320.1,323c-67,0-121.6-54.5-121.6-121.6c0-37.4,16.9-70.8,43.5-93.1c-47,20.5-79.9,67.4-79.9,121.8
		c0,73.2,59.6,132.8,132.8,132.8c60.5,0,111.7-40.7,127.6-96.1C401,300.5,363.1,323,320.1,323z"/>
	<path class="st5" d="M422.6,266.7c-16,55.4-67.1,96.1-127.6,96.1c-73.2,0-132.8-59.6-132.8-132.8c0-54.4,32.9-101.3,79.9-121.8
		c6.6-5.5,13.7-10.3,21.3-14.4c-61.9,14.4-108.1,69.9-108.1,136.1c0,77.1,62.7,139.7,139.7,139.7c72.4,0,132.1-55.3,139.1-125.9
		C431,251.9,427.2,259.6,422.6,266.7z"/>
	<path class="st5" d="M320.1,316c-63.2,0-114.6-51.4-114.6-114.6c0-43.6,24.4-81.5,60.3-100.9c-8.2,1.9-16.1,4.5-23.7,7.8
		c-26.6,22.3-43.5,55.8-43.5,93.1c0,67,54.5,121.6,121.6,121.6c43,0,80.9-22.5,102.5-56.3c2.3-7.9,3.8-16,4.6-24.4
		C410.7,285.4,368.9,316,320.1,316z"/>
	<path class="st5" d="M433.9,215.1c-1.1,9.5-3.4,18.6-6.7,27.2c-0.8,8.4-2.3,16.6-4.6,24.4c4.6-7.1,8.4-14.8,11.4-22.9
		c0.4-4.6,0.7-9.2,0.7-13.8C434.7,225,434.4,220,433.9,215.1z"/>
	<path class="st5" d="M265.8,100.5c8.1-4.4,16.8-7.8,25.9-10.2c-9.7,0.2-19.2,1.4-28.3,3.6c-7.6,4-14.8,8.9-21.3,14.4
		C249.6,105,257.6,102.3,265.8,100.5z"/>
</g>
<g id="Шар_10" class="st0">
	<path class="st5" d="M143.7,388.4c27.1-2.8,54.6,2.5,79.8,12.7c24.1,9.8,48,23.7,74.7,24.1c12.7,0.2,24.2-3.5,35.2-9.6
		c10.8-6.1,20.6-13.8,31.2-20.3c11.2-6.9,23.4-11.5,36.7-11.8c7.7-0.2,15.5,0.9,22.6,3.6c5.6-0.3,11.2,0,16.6,1.1l-3.6,6.3
		c-3.9-3.2-8.3-5.6-13-7.3c-11.9,0.7-23.6,4.5-33.5,11.3c-3.5,2.4-7.2,5.2-8,9.6c-0.8,4,1.2,7.9,4.1,10.6c3.1,2.9,6.9,4.5,10.8,6.1
		c4,1.6,8.1,2.9,12.3,3.8c17.4,3.8,35.6,1.4,50.3-9c7.1-5.1,13.4-11.3,20.7-16.2c2.8-1.9,6.9-3.2,10-4.5l0.1-9.1
		c-6.5,2.4-13.6,6.7-19.1,11c-6.3,4.9-12.2,10.6-19.1,14.8c-6.9,4.3-14.7,6.7-22.8,7.2c-8.1,0.5-16.2-0.5-23.9-2.9
		c-3.7-1.1-7.4-2.4-10.7-4.2c-2-1.1-5.9-3.3-5.3-6.1c0.4-1.7,2.4-3.1,3.8-4c1.8-1.3,3.7-2.5,5.7-3.6c3.9-2.2,8-3.8,12.3-5.1
		c8.8-2.5,18.1-3,27.1-1.3c3.3,0.6,6.9-3.7,3.6-6.3c-19.4-15.6-46.8-16.6-69.1-6.9c-11.4,4.9-21.3,12.5-31.5,19.4
		c-10.2,6.8-21.1,13.6-33.4,15.5c-26.5,4.1-52.3-10.2-75.8-20.3c-26.2-11.3-54.2-18.2-82.9-16.4c-23.1,1.4-47,8.5-64.2,24.3v10.7
		C100.1,398.8,121.9,390.6,143.7,388.4z"/>
	<path class="st5" d="M440.6,388.2c-5.5-1-11.1-1.4-16.6-1.1c4.7,1.8,9.1,4.2,13,7.3L440.6,388.2z"/>
	<path class="st5" d="M323.7,435.5c-23.2-1.5-47.4,1-69.9,6.8c-10.9,2.8-20.9,7.7-32.1,9.4c-11.9,1.7-24.4,1.5-36.2-0.8
		c-5.8-1.1-12.2-2.6-17.2-5.8c-2.2-1.4-5.2-3.8-3.3-6.6c1.8-2.6,5.3-4.3,8-5.6c12.9-6.4,28.8-5.6,42.5-3c3.3,0.6,6.9-3.7,3.6-6.3
		c-18.7-15-45.8-15.2-67.5-6.8c-23,8.9-40.5,30-65.2,34.6c-0.4,0.1-0.9,0.1-1.3,0.2v7.5c9.2-1.3,17.8-4.7,26.1-9.4
		c10.5-6,20.1-13.6,30.6-19.7c15.7-9.2,36.9-14.3,55.1-9.5c6.9,0,13.8,0.9,20.5,2.1c-1.2,2.1-2.4,4.2-3.6,6.3
		c-5.1-4.1-10.8-6.8-16.8-8.4c-6.9,0-13.9,0.8-20.5,2.9c-5.9,1.9-12.5,4.9-16.7,9.6c-4.7,5.3-3.4,12,1.8,16.4
		c4.5,3.8,10.4,5.9,16.1,7.4c6.1,1.6,12.4,2.5,18.7,3c12.3,1,25.1,0.4,37-3c5.6-1.6,11-4.1,16.6-5.7c6.2-1.9,12.5-3.3,18.8-4.5
		c12.6-2.3,25.5-3.6,38.3-3.9c24.2-0.6,48.7,4,71.1,13.3c10.1,4.2,19.7,9.6,29,15.4c3.1,2,38.4,22.4,46.9,27.4l9.3-2.1
		c-18.1-11-62.4-38.1-72.1-42.9C370.6,443.6,347.1,437.1,323.7,435.5z"/>
	<path class="st5" d="M217.7,422.7c-6.7-1.3-13.6-2.1-20.5-2.1c6.1,1.6,11.8,4.3,16.8,8.4C215.2,426.9,216.5,424.8,217.7,422.7z"/>
	<path class="st5" d="M288.5,468.3c-16.2-0.7-32.5,1.7-48.2,5.9c-9,2.4-37.4,14.6-49,23.5l12.9,1.6c25.9-16.2,62.9-23.6,78.7-23.6
		c14.2,0,28,0.5,41.7,4.9c22.5,7.4,45.9,21.5,39.5,18.6l10.1-1.7c-5.2-2.5-24.3-14.1-40.3-20.6C320.4,471.4,303.1,468.9,288.5,468.3
		z"/>
	<path class="st5" d="M445.8,456.8c-1.7,1.1-2.4,3.3-1.3,5.1c1,1.7,3.4,2.5,5.1,1.3c12.3-8.2,25.8-14.3,39.9-18.2v-7.7
		c-8.5,2.2-16.8,5.2-24.8,8.8C458.1,449.2,451.8,452.8,445.8,456.8z"/>
	<path class="st5" d="M85.3,470.7v7.5c13.7-0.5,44.5-0.1,69.1,20.8l13.7-1.7c-25.4-19.1-41.2-22.2-52.8-24.3
		C105.4,471.2,95.4,470.4,85.3,470.7z"/>
	<line class="st6" x1="85.3" y1="499.9" x2="487.3" y2="499.9"/>
	<line class="st7" x1="487.6" y1="394.7" x2="487.3" y2="503.1"/>
	<line class="st7" x1="88.3" y1="404.9" x2="88.4" y2="503.3"/>
</g>
<g id="Шар_5">
	<line class="st8" x1="205.9" y1="211" x2="205.9" y2="82.9"/>
	<line class="st8" x1="205.9" y1="139.6" x2="167.2" y2="108.9"/>
	<line class="st8" x1="205.9" y1="182.8" x2="136.3" y2="137.1"/>
	<line class="st8" x1="194.4" y1="218.4" x2="113" y2="167.6"/>
	<line class="st8" x1="205.9" y1="140.1" x2="244.7" y2="109.4"/>
	<line class="st8" x1="205.9" y1="183.4" x2="275.6" y2="137.6"/>
	<line class="st8" x1="221.3" y1="216.6" x2="298.9" y2="168.2"/>
	<line class="st8" x1="148.3" y1="235.6" x2="105.1" y2="208.6"/>
</g>
<g id="Шар_6">
	<g>
		<g>
			<path class="st9" d="M375,162.2c-0.7-2.2-1.3-4.4-1.8-6.6c-0.2-1.2-0.3-2.4-0.6-3.5c0,0,0.1,1.3,0.1,0.6c0-0.2-0.1-0.5-0.1-0.7
				c-0.1-0.7-0.1-1.4-0.2-2.1c-0.1-2.1-0.2-4.2-0.1-6.2c0-0.5,0.1-0.9,0.1-1.4c0-0.2,0-0.4,0.1-0.6c0.1-1.1,0,0.4-0.1,0.5
				c0.4-0.8,0.4-2.1,0.6-3c0.2-0.9,0.5-1.8,0.8-2.7c0.5-1.5-0.5,0.9,0-0.1c0.2-0.5,0.5-1,0.7-1.4c0.5-0.8,1-1.6,1.5-2.4
				c-0.9,1.5-0.1,0.1,0.3-0.3c0.4-0.4,0.8-0.8,1.2-1.2c0.4-0.3,0.7-0.6,1.1-0.9c0.5-0.5-0.5,0.4-0.5,0.4c0,0,0.7-0.5,0.7-0.5
				c0.9-0.6,1.7-1.2,2.7-1.7c0.9-0.5,1.7-0.9,2.6-1.4c0.5-0.2,1-0.5,1.4-0.7c0.2-0.1,0.4-0.2,0.6-0.3c0.7-0.3-1.2,0.5-0.1,0
				c2.1-0.8,4.1-1.5,6.2-2c1-0.3,2.1-0.5,3.1-0.7c0.5-0.1,1-0.2,1.6-0.3c0.3-0.1,0.6-0.1,0.9-0.1c0.9-0.1,0,0-0.4,0
				c1.1,0,2.3-0.2,3.5-0.3c1.2-0.1,2.4-0.1,3.6-0.2c2.7-0.1,5.4-0.4,8.1-0.8c7.8-1.1,15.2-5.6,20.2-11.5c5.9-6.9,9.6-15.9,8.9-25.1
				c-0.2-3.4-2.8-6.7-6.5-6.5c-3.3,0.1-6.8,2.9-6.5,6.5c0.1,0.8,0.1,1.6,0.1,2.5c0,0.4,0.1,2.6-0.2,2.8c-0.1,0,0.2-1.5,0.1-0.9
				c0,0.2-0.1,0.5-0.1,0.7c-0.1,0.4-0.2,0.8-0.3,1.2c-0.2,0.9-0.4,1.7-0.7,2.5c-0.1,0.4-0.3,0.8-0.4,1.2c-0.1,0.2-0.2,0.4-0.3,0.7
				c0,0.1,0.6-1.4,0.3-0.7c-0.4,0.8-0.8,1.6-1.2,2.4c-0.4,0.8-0.9,1.5-1.4,2.3c-0.2,0.3-0.5,0.7-0.7,1c-0.1,0.2-0.5,0.7,0.1-0.1
				c0.7-0.9,0,0-0.2,0.2c-1.1,1.3-2.3,2.5-3.6,3.7c-0.3,0.3-0.6,0.5-1,0.8c1.5-1.3,0.3-0.2-0.1,0c-0.7,0.5-1.5,1-2.2,1.4
				c-0.7,0.4-1.4,0.8-2.2,1.1c-1.3,0.6,1.1-0.4,0.1,0c-0.4,0.2-0.9,0.3-1.3,0.5c-0.8,0.3-1.6,0.5-2.4,0.6c-0.6,0.1-1.2,0.2-1.8,0.3
				c-0.2,0-1,0.2-0.1,0c1.1-0.2-0.5,0-0.6,0c-5,0.5-9.9,0.5-14.9,1.3c-4.8,0.8-9.4,2.3-13.9,4.2c-4.2,1.8-8.2,4.1-11.7,7.3
				c-3.6,3.3-6,7.6-7.5,12.2c-1.5,4.7-1.8,9.9-1.6,14.8c0.3,5.7,1.3,11.4,3.1,16.8c1.1,3.2,4.5,5.7,8,4.5
				C373.7,169.1,376.2,165.6,375,162.2L375,162.2z"/>
		</g>
	</g>
	<g>
		<g>
			<path class="st9" d="M396,161.6c-0.4-1-0.7-2-0.9-3.1c-0.3-1.2,0.1,1.4,0.1,0.5c0-0.3-0.1-0.6-0.1-0.9c0-0.6,0-1.2,0-1.8
				c0-0.2,0.1-0.5,0.1-0.7c0.1,1.5-0.2,1.2-0.1,0.5c0.1-0.5,0.2-1.1,0.4-1.6c0.1-0.5,0.3-1,0.5-1.5c0.2-0.5,0.6-1-0.2,0.4
				c0.2-0.3,0.3-0.7,0.5-1c0.5-1,1.1-1.9,1.7-2.8c0.2-0.4,0.8-0.8-0.4,0.4c0.2-0.2,0.3-0.4,0.5-0.6c0.4-0.5,0.9-1,1.4-1.4
				c0.4-0.4,0.8-0.7,1.2-1.1c-1.3,1.3,0,0,0.5-0.3c1.1-0.7,2.2-1.3,3.3-1.8c1.2-0.6-1.1,0.4-0.3,0.1c0.3-0.1,0.6-0.2,0.9-0.4
				c0.5-0.2,1-0.4,1.5-0.5c1.3-0.4,2.6-0.7,3.9-0.9c0.3-0.1,0.7-0.1,1-0.2c0.9-0.2-1.7,0.2-0.3,0c0.5-0.1,1.1-0.1,1.6-0.2
				c1.4-0.1,2.7-0.1,4.1-0.1c5.9,0.1,12.1,1.2,17.9-1c3.7-1.4,6.8-3.7,9.1-6.9c2.4-3.3,2.9-7.2,2.2-11.1c-0.6-3.4-4.9-5.5-8-4.5
				c-3.6,1.2-5.2,4.4-4.5,8c-0.3-1.8-0.1-1-0.1-0.5c0,0.8-0.4,0.7,0.1-0.5c-0.1,0.3-0.4,1-0.4,1.3c0-0.9,0.6-1.2,0.2-0.4
				c-0.1,0.3-0.3,0.5-0.5,0.8c-0.3,0.5-0.7,0.5,0.4-0.4c-0.3,0.2-0.5,0.6-0.7,0.8c-0.2,0.2-0.4,0.3-0.5,0.5c-0.9,0.9,1-0.7,0.3-0.2
				c-0.5,0.3-0.9,0.6-1.4,0.9c-0.2,0.1-0.5,0.2-0.7,0.3c1.1-0.8,1-0.4,0.4-0.2c-0.3,0.1-2.1,0.8-2.4,0.6c0,0,1.7-0.2,0.4-0.1
				c-0.3,0-0.6,0.1-0.9,0.1c-0.8,0-1.5,0.1-2.3,0.1c-1.5,0-2.9-0.1-4.4-0.2c-2.6-0.2-5.2-0.3-7.9-0.1c-11.4,0.8-23.4,5.6-28.5,16.5
				c-2.7,5.7-3.8,12.6-1.3,18.7c0.7,1.6,1.4,2.9,3,3.9c1.4,0.8,3.4,1.2,5,0.7c1.6-0.5,3.1-1.5,3.9-3
				C396.1,165.2,396.6,163.2,396,161.6L396,161.6z"/>
		</g>
	</g>
</g>
<g id="Шар_3">
	<rect x="360.5" y="363.5" class="st10" width="33.5" height="33.5"/>
	<line class="st11" x1="288" y1="326.1" x2="288" y2="254.1"/>
	<line class="st11" x1="337.6" y1="222.3" x2="349.8" y2="298.7"/>
	<line class="st11" x1="421.1" y1="329.4" x2="396.5" y2="252.5"/>
	<line class="st11" x1="238.4" y1="222.3" x2="226.2" y2="298.7"/>
	<line class="st11" x1="154.9" y1="329.4" x2="179.5" y2="252.5"/>
	<line class="st10" x1="432.9" y1="445.6" x2="484.9" y2="445.6"/>
	<line class="st10" x1="432.9" y1="479.6" x2="484.9" y2="479.6"/>
	<line class="st10" x1="484.9" y1="440.6" x2="484.9" y2="479.6"/>
	<line class="st10" x1="402" y1="480.1" x2="402" y2="424.1"/>
	<line class="st10" x1="484.9" y1="484.6" x2="484.9" y2="424.1"/>
	<line class="st10" x1="358" y1="480.1" x2="358" y2="424.1"/>
	<line class="st10" x1="142.3" y1="445.6" x2="90.3" y2="445.6"/>
	<line class="st10" x1="142.3" y1="479.6" x2="90.3" y2="479.6"/>
	<line class="st10" x1="90.3" y1="440.6" x2="90.3" y2="479.6"/>
	<line class="st10" x1="173.2" y1="479.6" x2="173.2" y2="424.1"/>
	<line class="st10" x1="90.3" y1="484.6" x2="90.3" y2="424.1"/>
	<line class="st10" x1="217.2" y1="479.6" x2="217.2" y2="424.1"/>
	<rect x="179.6" y="363.5" class="st10" width="33.5" height="33.5"/>
	<rect x="363.6" y="184.9" class="st10" width="33.5" height="33.5"/>
</g>
<g id="Шар_2">
	<line class="st10" x1="128.1" y1="445.6" x2="217.8" y2="445.6"/>
	<line class="st10" x1="130.6" y1="328.5" x2="130.6" y2="479.6"/>
	<line class="st10" x1="444.6" y1="329.3" x2="444.6" y2="479.6"/>
	<line class="st10" x1="90.3" y1="331.1" x2="484.9" y2="331.1"/>
	<line class="st8" x1="160.4" y1="218.4" x2="415.6" y2="218.4"/>
	<line class="st8" x1="90.3" y1="331.1" x2="160.4" y2="218.4"/>
	<line class="st8" x1="485.7" y1="331.1" x2="415.6" y2="218.4"/>
	<line class="st10" x1="127.1" y1="479.6" x2="448.1" y2="479.6"/>
	<rect x="265.3" y="380.2" class="st10" width="44.6" height="99.4"/>
	<line class="st10" x1="358.6" y1="445.6" x2="447.1" y2="445.6"/>
</g>
</svg>
