<?xml version="1.0" encoding="utf-8"?>
<!-- Generator: Adobe Illustrator 24.2.3, SVG Export Plug-In . SVG Version: 6.00 Build 0)  -->
<svg version="1.1" xmlns="http://www.w3.org/2000/svg" xmlns:xlink="http://www.w3.org/1999/xlink" x="0px" y="0px"
	 viewBox="0 0 576 576" style="enable-background:new 0 0 576 576;" xml:space="preserve">
<style type="text/css">
	.st0{display:none;}
	.st1{display:inline;fill:#FFED00;}
	.st2{display:inline;fill:none;}
	.st3{display:inline;fill:#1D1D1B;}
	.st4{fill:#1D1D1B;}
	.st5{display:inline;}
	.st6{fill:none;stroke:#1D1D1B;stroke-width:14;stroke-linecap:round;stroke-miterlimit:10;}
	.st7{fill:none;stroke:#1D1D1B;stroke-width:14;stroke-miterlimit:10;}
	.st8{fill:none;stroke:#1D1D1B;stroke-width:14;stroke-linecap:round;stroke-linejoin:round;stroke-miterlimit:10;}
</style>
<g id="Шар_1">
</g>
<g id="Шар_4" class="st0">
	<rect x="85.3" y="78.9" class="st1" width="404.1" height="404.1"/>
</g>
<g id="Шар_8">
</g>
<g id="Шар_7" class="st0">
	<path class="st2" d="M158.5,239.7c0,91,74,165,165,165c70.2,0,130.4-44.1,154.1-106.1c0.5-5.8,0.8-11.7,0.8-17.6
		c0-105.4-85.7-191.1-191.1-191.1c-14.4,0-28.5,1.6-42,4.7C193.6,122.3,158.5,177,158.5,239.7z"/>
	<path class="st2" d="M323.4,414.6c-96.5,0-175-78.5-175-175c0-53.8,24.4-101.9,62.7-134c-67.6,29.5-114.9,96.9-114.9,175.2
		c0,105.4,85.7,191.1,191.1,191.1c87.1,0,160.7-58.5,183.7-138.3C439.8,382.3,385.3,414.6,323.4,414.6z"/>
	<path class="st2" d="M487.2,259.4c0.8-6.5,1.2-13,1.2-19.7c0-91-74-165-165-165c-14.1,0-27.8,1.8-40.9,5.1c1.6,0,3.1-0.1,4.7-0.1
		C390.9,79.8,476.5,158.6,487.2,259.4z"/>
	<path class="st3" d="M470.9,333.7c-23,79.8-96.6,138.3-183.7,138.3c-105.4,0-191.1-85.7-191.1-191.1c0-78.3,47.4-145.8,114.9-175.2
		c9.4-7.9,19.7-14.8,30.7-20.7c-89,20.7-155.6,100.7-155.6,195.9c0,110.9,90.2,201.1,201.1,201.1c104.2,0,190.1-79.6,200.1-181.2
		C483,312.4,477.5,323.4,470.9,333.7z"/>
	<path class="st3" d="M323.4,404.6c-91,0-165-74-165-165c0-62.7,35.2-117.3,86.8-145.2c-11.8,2.7-23.2,6.4-34.1,11.2
		c-38.3,32.1-62.7,80.3-62.7,134c0,96.5,78.5,175,175,175c61.9,0,116.4-32.3,147.5-80.9c3.3-11.3,5.5-23.1,6.6-35.2
		C453.8,360.5,393.7,404.6,323.4,404.6z"/>
	<path class="st3" d="M245.3,94.4c11.7-6.3,24.2-11.2,37.3-14.6c-14,0.3-27.6,2.1-40.8,5.1c-11,5.8-21.2,12.7-30.7,20.7
		C222,100.9,233.4,97.1,245.3,94.4z"/>
	<path class="st3" d="M487.2,259.4c-1.6,13.6-4.9,26.7-9.7,39.1c-1.1,12.1-3.3,23.8-6.6,35.2c6.6-10.3,12.1-21.3,16.4-32.9
		c0.6-6.6,1-13.2,1-19.9C488.4,273.6,488,266.4,487.2,259.4z"/>
</g>
<g id="Шар_7_копія">
</g>
<g id="Шар_10">
	<path class="st4" d="M287.5,350.4c32.9,0,64.5-12.2,88.8-34.5c24.2-22.1,39.3-52.1,42.5-84.5l0.5-19.5c-0.1-2.6-0.3-5.1-0.6-7.7
		l-3-28.3l-3.4,28.3c-1,8.3-3,16.5-6,24.3c-15.1,39.4-53.5,65.9-95.7,65.9c-56.5,0-102.4-45.9-102.4-102.4
		c0-37.6,20.6-72.2,53.9-90.1c7.3-4,15.1-7,23.1-9.1l27.4-7l-28.2,0.7c-2.5,0.1-5.1,0.2-7.6,0.4l-19.1,3
		c-28.5,6.6-54.5,22.9-73,45.9c-18.8,23.3-29.1,52.7-29.1,82.6C155.5,291.2,214.7,350.4,287.5,350.4z M220.7,120.1l-0.4,0.4
		c-0.3,0.4-0.7,0.8-1,1.3c-0.2,0.3-0.4,0.5-0.6,0.8l-0.3,0.4c-0.3,0.4-0.6,0.9-1,1.3c-0.2,0.3-0.4,0.6-0.6,0.8l-0.3,0.4
		c-0.3,0.4-0.6,0.9-0.9,1.3c-0.2,0.3-0.4,0.6-0.6,0.9l-0.1,0.2c-0.3,0.5-0.6,1-1,1.4c-0.2,0.3-0.4,0.7-0.6,1l-0.1,0.1
		c-0.3,0.5-0.6,1-0.9,1.5c-0.2,0.3-0.4,0.7-0.6,1l-0.1,0.1c-0.3,0.5-0.6,1-0.9,1.5c-0.2,0.4-0.5,0.8-0.7,1.2c-0.3,0.5-0.6,1-0.8,1.5
		c-0.2,0.4-0.4,0.8-0.6,1.2c-0.3,0.5-0.5,1-0.8,1.5c-0.2,0.4-0.4,0.8-0.6,1.2c-0.2,0.5-0.5,1-0.7,1.5c-0.2,0.4-0.4,0.8-0.6,1.3
		c-0.2,0.5-0.5,1-0.7,1.5c-0.2,0.4-0.4,0.9-0.6,1.3c-0.2,0.5-0.4,1-0.6,1.5c-0.2,0.4-0.4,0.9-0.5,1.3c-0.2,0.5-0.4,1-0.6,1.6
		c-0.2,0.4-0.3,0.9-0.5,1.3c-0.2,0.5-0.4,1-0.6,1.6c-0.2,0.4-0.3,0.9-0.5,1.3c-0.2,0.5-0.3,1.1-0.5,1.6c-0.1,0.4-0.3,0.9-0.4,1.3
		c-0.2,0.5-0.3,1.1-0.5,1.6c-0.1,0.4-0.3,0.9-0.4,1.3c-0.1,0.5-0.3,1.1-0.4,1.6l-0.1,0.2c-0.1,0.4-0.2,0.8-0.3,1.1
		c-0.1,0.5-0.3,1-0.4,1.6l-0.1,0.3c-0.1,0.4-0.2,0.7-0.2,1.1c-0.1,0.5-0.2,1-0.3,1.5l-0.1,0.5c-0.1,0.4-0.1,0.7-0.2,1.1
		c-0.1,0.5-0.2,1-0.3,1.4l-0.1,0.6c-0.1,0.3-0.1,0.6-0.2,1c-0.1,0.5-0.1,0.9-0.2,1.4l-0.1,0.7c-0.1,0.3-0.1,0.7-0.1,1
		c-0.1,0.5-0.1,1-0.2,1.5l-0.1,0.7c0,0.3-0.1,0.6-0.1,0.9c-0.1,0.5-0.1,0.9-0.1,1.4l-0.1,0.8c0,0.3-0.1,0.6-0.1,0.9
		c0,0.5-0.1,1-0.1,1.5l-0.1,0.8c0,0.3,0,0.5-0.1,0.8c0,0.7-0.1,1.3-0.1,2l0,0.5c0,0.2,0,0.4,0,0.6c0,1,0,2.1,0,3.1
		c0,63.5,51.7,115.2,115.2,115.2c1.2,0,2.4,0,3.6-0.1c0.2,0,0.5,0,0.7,0l0.8,0c0.7,0,1.4-0.1,2.1-0.1c0.3,0,0.6,0,0.9-0.1l0.8-0.1
		c0.6,0,1.2-0.1,1.8-0.1c0.3,0,0.7-0.1,1-0.1l0.9-0.1c0.6-0.1,1.1-0.1,1.7-0.2c0.4,0,0.7-0.1,1.1-0.1l0.9-0.1
		c0.5-0.1,1.1-0.1,1.6-0.2c0.4-0.1,0.8-0.1,1.2-0.2l0.7-0.1c0.5-0.1,1.1-0.2,1.6-0.3c0.4-0.1,0.7-0.1,1.1-0.2l0.8-0.2
		c0.5-0.1,1-0.2,1.6-0.3c0.4-0.1,0.7-0.2,1.1-0.3l0.8-0.2c0.5-0.1,1-0.2,1.6-0.4c0.4-0.1,0.8-0.2,1.2-0.3l0.7-0.2
		c0.5-0.1,1.1-0.3,1.6-0.4c0.4-0.1,0.8-0.2,1.1-0.3l0.5-0.2c0.6-0.2,1.1-0.3,1.7-0.5c0.4-0.1,0.9-0.3,1.3-0.4l0.2-0.1
		c0.6-0.2,1.2-0.4,1.8-0.6c0.4-0.2,0.9-0.3,1.3-0.5l0.3-0.1c0.6-0.2,1.1-0.4,1.7-0.6c0.4-0.2,0.9-0.4,1.3-0.5l0.2-0.1
		c0.6-0.2,1.2-0.5,1.8-0.7c0.5-0.2,1-0.4,1.5-0.6c0.6-0.3,1.2-0.5,1.7-0.8c0.5-0.2,1-0.5,1.5-0.7c0.6-0.3,1.1-0.6,1.7-0.8
		c0.5-0.2,1-0.5,1.4-0.7c0.6-0.3,1.1-0.6,1.7-0.9c0.5-0.3,0.9-0.5,1.4-0.8c0.6-0.3,1.1-0.6,1.7-0.9c0.5-0.3,0.9-0.5,1.4-0.8
		c0.5-0.3,1.1-0.7,1.6-1c0.5-0.3,0.9-0.6,1.4-0.9c0.5-0.3,1.1-0.7,1.6-1c0.4-0.3,0.9-0.6,1.3-0.9c0.5-0.4,1.1-0.7,1.6-1.1
		c0.4-0.3,0.9-0.6,1.3-0.9c0.5-0.4,1-0.8,1.5-1.2c0.4-0.3,0.9-0.7,1.3-1c0.5-0.4,1-0.8,1.5-1.2c0.4-0.3,0.8-0.7,1.2-1
		c0.5-0.4,1-0.8,1.5-1.3l0.1-0.1c0.4-0.3,0.8-0.7,1.1-1c0.5-0.4,1-0.9,1.4-1.3l0.1-0.1c0.4-0.3,0.7-0.7,1.1-1
		c0.5-0.4,0.9-0.9,1.4-1.4l0.2-0.2c0.3-0.3,0.6-0.6,1-1c0.4-0.4,0.8-0.9,1.3-1.3l0.3-0.3c0.2-0.2,0.3-0.3,0.4-0.5
		c-0.1,0.2-0.2,0.3-0.3,0.5l2.5,1.2l-2.5-1.1c-0.7,1.4-1.4,2.8-2.1,4l-0.1,0.1c-2.3,4.1-4.8,8-7.6,11.9c-0.9,1.2-1.8,2.4-2.8,3.6
		l-0.1,0.1c-0.9,1.1-1.9,2.3-2.8,3.5l-0.1,0.2c-0.9,1.1-1.9,2.2-2.9,3.3l-0.2,0.2c-1,1-2,2.1-3,3.1l-0.2,0.2c-1,1-2,2-3.1,3
		l-0.3,0.2c-1,0.9-2.1,1.9-3.2,2.8l-0.3,0.3c-1,0.9-2.1,1.8-3.3,2.7l-0.3,0.3c-1.1,0.8-2.2,1.7-3.3,2.5l-0.4,0.3
		c-1.1,0.8-2.3,1.6-3.4,2.4l-0.4,0.3c-1.1,0.8-2.3,1.5-3.5,2.3l-0.4,0.3c-1.2,0.7-2.4,1.4-3.6,2.1l-0.4,0.3c-1.2,0.7-2.4,1.3-3.6,2
		l-0.5,0.2c-1.2,0.6-2.5,1.3-3.7,1.8l-0.5,0.2c-1.3,0.6-2.5,1.2-3.8,1.7l-0.5,0.2c-1.3,0.5-2.6,1.1-3.9,1.6L329,330
		c-1.3,0.5-2.7,1-3.9,1.4l-0.5,0.2c-1.4,0.5-2.7,0.9-4,1.3l-0.5,0.1c-1.4,0.4-2.8,0.8-4.1,1.1l-0.4,0.1c-1.5,0.4-2.8,0.7-4.2,1
		l-0.4,0.1c-1.5,0.3-2.9,0.6-4.3,0.8l-0.3,0.1c-1.5,0.2-3,0.5-4.4,0.6l-0.3,0c-1.6,0.2-3.1,0.3-4.6,0.5l-0.2,0
		c-1.6,0.1-3.1,0.2-4.6,0.3l-0.1,0c-1.6,0.1-3.2,0.1-4.7,0.1c-65.7,0-119.1-53.4-119.1-119.1c0-1.4,0-2.9,0.1-4.4v0
		c0-0.3,0-0.5,0-0.8l0.1-1c0-0.8,0.1-1.7,0.1-2.5c0-0.3,0.1-0.7,0.1-1l0.1-1.2c0.1-0.7,0.1-1.4,0.2-2c0-0.4,0.1-0.8,0.1-1.1l0.2-1.3
		c0.1-0.6,0.2-1.2,0.2-1.9c0.1-0.4,0.1-0.8,0.2-1.2l0.2-1.2c0.1-0.6,0.2-1.2,0.3-1.8c0.1-0.4,0.2-0.8,0.2-1.2l0.2-1.2
		c0.1-0.6,0.2-1.2,0.4-1.8c0.1-0.4,0.2-0.8,0.3-1.3l0.3-1.1c0.1-0.6,0.3-1.2,0.4-1.8c0.1-0.4,0.2-0.9,0.4-1.3l0.3-1.1
		c0.2-0.6,0.3-1.2,0.5-1.7c0.1-0.4,0.3-0.9,0.4-1.3l0.3-0.9c0.2-0.6,0.4-1.2,0.6-1.8c0.2-0.5,0.3-0.9,0.5-1.4l0.3-0.8
		c0.2-0.6,0.4-1.2,0.7-1.8c0.2-0.5,0.4-0.9,0.6-1.4l0.3-0.7c0.2-0.6,0.5-1.2,0.7-1.8c0.2-0.5,0.4-0.9,0.6-1.4l0.3-0.7
		c0.3-0.6,0.5-1.2,0.8-1.8c0.2-0.5,0.5-1,0.7-1.5l0.2-0.4c0.3-0.6,0.6-1.3,0.9-1.9c0.2-0.5,0.5-1,0.8-1.5l0.2-0.3
		c0.3-0.6,0.7-1.3,1-1.9c0.3-0.5,0.6-1,0.8-1.5l0.1-0.2c0.4-0.7,0.7-1.3,1.1-1.9c0.3-0.5,0.6-1,1-1.5l0.1-0.1
		c0.4-0.6,0.8-1.3,1.2-1.9c0.4-0.6,0.7-1.1,1.1-1.6c0.4-0.6,0.8-1.2,1.3-1.9c0.4-0.5,0.8-1.1,1.1-1.6c0.4-0.6,0.9-1.2,1.3-1.8
		c0.4-0.5,0.8-1,1.2-1.6c0.5-0.6,0.9-1.2,1.4-1.8c0.4-0.5,0.8-1,1.3-1.5c0.5-0.6,1-1.1,1.5-1.7c0.4-0.5,0.9-1,1.3-1.5
		c0.5-0.6,1-1.1,1.5-1.7c0.5-0.5,0.9-1,1.4-1.4c0.5-0.5,1-1.1,1.6-1.6c0.5-0.5,0.9-0.9,1.4-1.4c0.5-0.5,1.1-1,1.6-1.5
		c0.5-0.5,1-0.9,1.5-1.3c0.6-0.5,1.1-1,1.7-1.5c0.5-0.4,1-0.9,1.5-1.3c0.6-0.5,1.2-1,1.7-1.4c0.5-0.4,1-0.8,1.6-1.2
		c0.6-0.5,1.2-0.9,1.8-1.4c0.5-0.4,1.1-0.8,1.6-1.2c0.6-0.4,1.2-0.9,1.9-1.3c0.4-0.3,0.9-0.6,1.3-0.9
		C221,119.8,220.8,119.9,220.7,120.1z"/>
	<path class="st4" d="M489.5,370.4c-6.2,2.3-13.6,6.5-20.1,11.6c-2.1,1.7-4.3,3.4-6.3,5.1c-4,3.3-8.1,6.7-12.4,9.4
		c-6.3,3.9-13.6,6.2-21.2,6.7c-7.4,0.5-15-0.4-22.7-2.7c-3.1-1-6.8-2.2-10.1-3.9c-2.3-1.3-3.1-2.1-3.4-2.4c0.4-0.5,1.4-1.2,1.9-1.5
		l0.4-0.3c1.7-1.2,3.5-2.4,5.4-3.4c3.6-2,7.5-3.6,11.5-4.8c8.4-2.4,17.2-2.8,25.4-1.2c3.8,0.7,7.2-1.8,8.4-4.5
		c1.2-2.5,0.7-5.2-1.1-7.2l-2.6-2.1c-19-14.1-46.7-16.4-70.8-6c-9.3,4-17.7,9.8-25.8,15.4c-2.1,1.4-4.2,2.9-6.3,4.3
		c-9.9,6.6-20.5,13.2-32,15c-21.6,3.4-42.8-6.2-63.3-15.4c-3.4-1.5-7-3.1-10.5-4.7c-29.5-12.7-58-18.3-84.5-16.7
		c-26.8,1.6-51,12-67,26.6v20.5l0,24.6l0,14.5l0,4.2l0,14.5l0,24.6h408v-0.3l3,0l0.4-104.9l-0.4-16.3L489.5,370.4z M481.5,420.2
		c-6.3,2-12.4,4.3-18.3,7c-6.7,3.1-13.2,6.7-19.4,10.9c-3.4,2.2-4.4,6.4-2.4,9.8c1,1.7,2.7,3,4.7,3.4c1.9,0.4,3.8,0.1,5.4-0.9
		c9.3-6.2,19.3-11.2,30-14.9l-0.1,42.1h-16.6l-6.8-4.1c-21-12.8-56.1-34.1-64.8-38.5c-21.6-10.7-45.5-17.2-69.1-18.8
		c-23.1-1.5-47.7,0.8-71,6.9c-4.4,1.1-8.7,2.6-12.8,4.1c-6.1,2.1-12.5,4.3-18.9,5.2c-11.5,1.7-23.6,1.4-35-0.8
		c-5.3-1-11.4-2.4-16-5.3c-1.4-0.9-1.9-1.5-2.2-1.8c1.3-1.7,4.1-3.1,6.4-4.2l0.2-0.1c10.1-5,23.6-5.9,40.3-2.7
		c3.8,0.7,7.2-1.8,8.4-4.5c1.2-2.5,0.7-5.2-1.1-7.2l-2.6-2.1c-17.8-13-44.8-15.3-69.1-5.9c-10.1,3.9-19.2,10.1-28,16.2
		c-8.9,6.1-18.1,12.4-28.2,16l0-34.2c12.7-10.8,29.8-17.6,49.7-19.6c24.7-2.6,51.7,1.8,78.1,12.5c5.2,2.1,10.6,4.5,15.8,6.8
		c19,8.5,38.6,17.2,60.2,17.5c12.5,0.1,24.6-3.1,37-10.1c6.4-3.6,12.4-7.7,18.2-11.7l0.1-0.1c4.2-2.9,8.6-5.9,13-8.6
		c11.9-7.3,23.3-11,34.9-11.3c1.4,0,2.9,0,4.3,0c-6.2,2-12,4.9-17.3,8.6c-4,2.8-8.4,6.2-9.5,11.8c-0.9,4.9,1,9.9,5.2,13.8
		c3.6,3.3,7.8,5.1,11.9,6.8c4.2,1.7,8.5,3,12.9,4c5.4,1.2,10.9,1.8,16.2,1.8c13.6,0,26.4-3.9,36.8-11.4c3.4-2.4,6.7-5.1,9.8-7.8
		c3.2-2.7,6.5-5.4,9.9-7.8L481.5,420.2z M140.4,477.6h-46l0-11.7C112.1,466.3,127.5,470.3,140.4,477.6z M282.9,463.4v-3V463.4
		c13.8,0,27.3,0.4,40.6,4.8c8.5,2.8,16.7,6.4,23,9.4H223.2C245.7,467.9,270.9,463.4,282.9,463.4z M239.4,455
		c-9.8,2.6-35.9,14.1-48.2,22.6h-22.4c-25.6-19-42-21.9-52.9-23.9c-7.2-1.3-14.5-2.1-21.6-2.3l0-6.4c6.3-1.7,12.5-4.4,18.8-8
		c5.6-3.2,10.9-6.8,16.1-10.4c4.7-3.2,9.6-6.5,14.5-9.4c5.9-3.5,13.6-6.7,21.9-8.8c-3.4,1.9-6.2,4-8.4,6.4c-2.7,3-4,6.6-3.8,10.4
		c0.3,4.1,2.4,8,5.9,11c5.1,4.4,11.7,6.6,17.5,8.1c5.8,1.5,12.1,2.6,19.3,3.1c14.1,1.1,26.9,0.1,38.2-3.1c3.2-0.9,6.2-2,9.1-3.1
		c2.5-0.9,5-1.9,7.5-2.6c5.7-1.7,11.7-3.1,18.5-4.4c12.1-2.2,24.8-3.5,37.8-3.8c23.7-0.6,47.8,4,69.6,13.1
		c8.7,3.6,17.7,8.4,28.5,15.2c2.2,1.3,19,11.2,32.3,18.9h-64.1c-1.5-0.8-3.5-1.9-5.7-3.1l-0.1-0.1c-8.5-4.7-21.3-11.9-32.7-16.5
		c-16.3-6.7-36.2-8.4-46.6-8.8C273.2,448.4,256.6,450.4,239.4,455z"/>
</g>
<g id="Шар_2" class="st0">
	<g class="st5">
		<line class="st6" x1="-346.6" y1="211" x2="-346.6" y2="82.9"/>
		<line class="st6" x1="-346.6" y1="139.6" x2="-385.3" y2="108.9"/>
		<line class="st6" x1="-346.6" y1="182.8" x2="-416.2" y2="137.1"/>
		<line class="st6" x1="-358.1" y1="218.4" x2="-439.5" y2="167.6"/>
		<line class="st6" x1="-346.6" y1="140.1" x2="-307.8" y2="109.4"/>
		<line class="st6" x1="-346.6" y1="183.4" x2="-276.9" y2="137.6"/>
		<line class="st6" x1="-331.2" y1="216.6" x2="-253.6" y2="168.2"/>
		<line class="st6" x1="-404.2" y1="235.6" x2="-447.4" y2="208.6"/>
		<g>
			<g>
				<path class="st4" d="M-177.5,162.2c-0.7-2.2-1.3-4.4-1.8-6.6c-0.2-1.2-0.3-2.4-0.6-3.5c0,0,0.1,1.3,0.1,0.6
					c0-0.2-0.1-0.5-0.1-0.7c-0.1-0.7-0.1-1.4-0.2-2.1c-0.1-2.1-0.2-4.2-0.1-6.2c0-0.5,0.1-0.9,0.1-1.4c0-0.2,0-0.4,0.1-0.6
					c0.1-1.1,0,0.4-0.1,0.5c0.4-0.8,0.4-2.1,0.6-3c0.2-0.9,0.5-1.8,0.8-2.7c0.5-1.5-0.5,0.9,0-0.1c0.2-0.5,0.5-1,0.7-1.4
					c0.5-0.8,1-1.6,1.5-2.4c-0.9,1.5-0.1,0.1,0.3-0.3c0.4-0.4,0.8-0.8,1.2-1.2c0.4-0.3,0.7-0.6,1.1-0.9c0.5-0.5-0.5,0.4-0.5,0.4
					c0,0,0.7-0.5,0.7-0.5c0.9-0.6,1.7-1.2,2.7-1.7c0.9-0.5,1.7-0.9,2.6-1.4c0.5-0.2,1-0.5,1.4-0.7c0.2-0.1,0.4-0.2,0.6-0.3
					c0.7-0.3-1.2,0.5-0.1,0c2.1-0.8,4.1-1.5,6.2-2c1-0.3,2.1-0.5,3.1-0.7c0.5-0.1,1-0.2,1.6-0.3c0.3-0.1,0.6-0.1,0.9-0.1
					c0.9-0.1,0,0-0.4,0c1.1,0,2.3-0.2,3.5-0.3c1.2-0.1,2.4-0.1,3.6-0.2c2.7-0.1,5.4-0.4,8.1-0.8c7.8-1.1,15.2-5.6,20.2-11.5
					c5.9-6.9,9.6-15.9,8.9-25.1c-0.2-3.4-2.8-6.7-6.5-6.5c-3.3,0.1-6.8,2.9-6.5,6.5c0.1,0.8,0.1,1.6,0.1,2.5c0,0.4,0.1,2.6-0.2,2.8
					c-0.1,0,0.2-1.5,0.1-0.9c0,0.2-0.1,0.5-0.1,0.7c-0.1,0.4-0.2,0.8-0.3,1.2c-0.2,0.9-0.4,1.7-0.7,2.5c-0.1,0.4-0.3,0.8-0.4,1.2
					c-0.1,0.2-0.2,0.4-0.3,0.7c0,0.1,0.6-1.4,0.3-0.7c-0.4,0.8-0.8,1.6-1.2,2.4c-0.4,0.8-0.9,1.5-1.4,2.3c-0.2,0.3-0.5,0.7-0.7,1
					c-0.1,0.2-0.5,0.7,0.1-0.1c0.7-0.9,0,0-0.2,0.2c-1.1,1.3-2.3,2.5-3.6,3.7c-0.3,0.3-0.6,0.5-1,0.8c1.5-1.3,0.3-0.2-0.1,0
					c-0.7,0.5-1.5,1-2.2,1.4c-0.7,0.4-1.4,0.8-2.2,1.1c-1.3,0.6,1.1-0.4,0.1,0c-0.4,0.2-0.9,0.3-1.3,0.5c-0.8,0.3-1.6,0.5-2.4,0.6
					c-0.6,0.1-1.2,0.2-1.8,0.3c-0.2,0-1,0.2-0.1,0c1.1-0.2-0.5,0-0.6,0c-5,0.5-9.9,0.5-14.9,1.3c-4.8,0.8-9.4,2.3-13.9,4.2
					c-4.2,1.8-8.2,4.1-11.7,7.3c-3.6,3.3-6,7.6-7.5,12.2c-1.5,4.7-1.8,9.9-1.6,14.8c0.3,5.7,1.3,11.4,3.1,16.8
					c1.1,3.2,4.5,5.7,8,4.5C-178.8,169.1-176.3,165.6-177.5,162.2L-177.5,162.2z"/>
			</g>
		</g>
		<g>
			<g>
				<path class="st4" d="M-156.5,161.6c-0.4-1-0.7-2-0.9-3.1c-0.3-1.2,0.1,1.4,0.1,0.5c0-0.3-0.1-0.6-0.1-0.9c0-0.6,0-1.2,0-1.8
					c0-0.2,0.1-0.5,0.1-0.7c0.1,1.5-0.2,1.2-0.1,0.5c0.1-0.5,0.2-1.1,0.4-1.6c0.1-0.5,0.3-1,0.5-1.5c0.2-0.5,0.6-1-0.2,0.4
					c0.2-0.3,0.3-0.7,0.5-1c0.5-1,1.1-1.9,1.7-2.8c0.2-0.4,0.8-0.8-0.4,0.4c0.2-0.2,0.3-0.4,0.5-0.6c0.4-0.5,0.9-1,1.4-1.4
					c0.4-0.4,0.8-0.7,1.2-1.1c-1.3,1.3,0,0,0.5-0.3c1.1-0.7,2.2-1.3,3.3-1.8c1.2-0.6-1.1,0.4-0.3,0.1c0.3-0.1,0.6-0.2,0.9-0.4
					c0.5-0.2,1-0.4,1.5-0.5c1.3-0.4,2.6-0.7,3.9-0.9c0.3-0.1,0.7-0.1,1-0.2c0.9-0.2-1.7,0.2-0.3,0c0.5-0.1,1.1-0.1,1.6-0.2
					c1.4-0.1,2.7-0.1,4.1-0.1c5.9,0.1,12.1,1.2,17.9-1c3.7-1.4,6.8-3.7,9.1-6.9c2.4-3.3,2.9-7.2,2.2-11.1c-0.6-3.4-4.9-5.5-8-4.5
					c-3.6,1.2-5.2,4.4-4.5,8c-0.3-1.8-0.1-1-0.1-0.5c0,0.8-0.4,0.7,0.1-0.5c-0.1,0.3-0.4,1-0.4,1.3c0-0.9,0.6-1.2,0.2-0.4
					c-0.1,0.3-0.3,0.5-0.5,0.8c-0.3,0.5-0.7,0.5,0.4-0.4c-0.3,0.2-0.5,0.6-0.7,0.8c-0.2,0.2-0.4,0.3-0.5,0.5c-0.9,0.9,1-0.7,0.3-0.2
					c-0.5,0.3-0.9,0.6-1.4,0.9c-0.2,0.1-0.5,0.2-0.7,0.3c1.1-0.8,1-0.4,0.4-0.2c-0.3,0.1-2.1,0.8-2.4,0.6c0,0,1.7-0.2,0.4-0.1
					c-0.3,0-0.6,0.1-0.9,0.1c-0.8,0-1.5,0.1-2.3,0.1c-1.5,0-2.9-0.1-4.4-0.2c-2.6-0.2-5.2-0.3-7.9-0.1c-11.4,0.8-23.4,5.6-28.5,16.5
					c-2.7,5.7-3.8,12.6-1.3,18.7c0.7,1.6,1.4,2.9,3,3.9c1.4,0.8,3.4,1.2,5,0.7c1.6-0.5,3.1-1.5,3.9-3
					C-156.4,165.2-155.9,163.2-156.5,161.6L-156.5,161.6z"/>
			</g>
		</g>
		<rect x="-192" y="363.5" class="st7" width="33.5" height="33.5"/>
		<line class="st8" x1="-264.5" y1="326.1" x2="-264.5" y2="254.1"/>
		<line class="st8" x1="-214.9" y1="222.3" x2="-202.7" y2="298.7"/>
		<line class="st8" x1="-131.5" y1="329.4" x2="-156" y2="252.5"/>
		<line class="st8" x1="-314.1" y1="222.3" x2="-326.3" y2="298.7"/>
		<line class="st8" x1="-397.6" y1="329.4" x2="-373.1" y2="252.5"/>
		<line class="st7" x1="-119.6" y1="445.6" x2="-67.6" y2="445.6"/>
		<line class="st7" x1="-119.6" y1="479.6" x2="-67.6" y2="479.6"/>
		<line class="st7" x1="-67.6" y1="440.6" x2="-67.6" y2="479.6"/>
		<line class="st7" x1="-150.5" y1="480.1" x2="-150.5" y2="424.1"/>
		<line class="st7" x1="-67.6" y1="486.4" x2="-67.6" y2="424.1"/>
		<line class="st7" x1="-194.5" y1="480.1" x2="-194.5" y2="424.1"/>
		<line class="st7" x1="-410.2" y1="445.6" x2="-462.2" y2="445.6"/>
		<line class="st7" x1="-410.2" y1="479.6" x2="-462.2" y2="479.6"/>
		<line class="st7" x1="-462.2" y1="440.6" x2="-462.2" y2="479.6"/>
		<line class="st7" x1="-379.3" y1="479.6" x2="-379.3" y2="424.1"/>
		<line class="st7" x1="-462.2" y1="486.4" x2="-462.2" y2="424.1"/>
		<line class="st7" x1="-335.3" y1="479.6" x2="-335.3" y2="424.1"/>
		<rect x="-373" y="363.5" class="st7" width="33.5" height="33.5"/>
		<rect x="-188.9" y="184.9" class="st7" width="33.5" height="33.5"/>
		<line class="st7" x1="-424.4" y1="445.6" x2="-334.8" y2="445.6"/>
		<line class="st7" x1="-421.9" y1="328.5" x2="-421.9" y2="479.6"/>
		<line class="st7" x1="-107.9" y1="329.3" x2="-107.9" y2="479.6"/>
		<line class="st7" x1="-462.2" y1="331.1" x2="-67.6" y2="331.1"/>
		<line class="st6" x1="-392.1" y1="218.4" x2="-136.9" y2="218.4"/>
		<line class="st6" x1="-462.2" y1="331.1" x2="-392.1" y2="218.4"/>
		<line class="st6" x1="-66.9" y1="331.1" x2="-136.9" y2="218.4"/>
		<line class="st7" x1="-425.4" y1="479.6" x2="-104.4" y2="479.6"/>
		<rect x="-287.2" y="380.2" class="st7" width="44.6" height="99.4"/>
		<line class="st7" x1="-193.9" y1="445.6" x2="-105.4" y2="445.6"/>
	</g>
</g>
</svg>
